<?xml version="1.0" encoding="UTF-8"?>
<svg xmlns="http://www.w3.org/2000/svg" xmlns:inkscape="http://www.inkscape.org/namespaces/inkscape" width="40.00mm" height="40.61mm" viewBox="19.500 10.700 251.100 254.900"><title>MT monogram</title><g inkscape:groupmode="layer" inkscape:label="ring"><path d="M76.260,131.795C75.599,131.706 74.987,131.517 74.119,131.135C72.690,130.506 72.236,130.400 70.982,130.400C70.160,130.400 69.201,130.507 68.739,130.649C68.562,130.704 68.129,130.886 67.778,131.055C66.558,131.638 65.899,131.677 63.934,131.280C63.307,131.154 62.256,130.960 61.598,130.850C58.499,130.330 57.644,130.049 56.362,129.128C55.582,128.568 54.979,128.291 53.475,127.801L52.825,127.589 L51.300,127.542C49.445,127.486 49.007,127.419 47.791,127.006C45.020,126.064 44.145,125.568 43.444,124.545C43.035,123.948 42.196,123.086 41.896,122.954C41.769,122.898 41.443,122.809 41.171,122.755C40.269,122.578 38.781,122.074 38.256,121.767C37.949,121.587 37.709,121.360 37.130,120.701C36.403,119.875 34.783,118.234 34.442,117.977C34.272,117.849 33.948,117.681 33.663,117.572C31.471,116.737 30.186,115.949 28.199,114.223C27.444,113.567 26.617,112.683 26.038,111.913C25.160,110.745 25.053,110.511 24.899,109.415C24.758,108.410 24.691,108.201 24.338,107.675C24.173,107.428 23.727,106.595 23.348,105.825C22.287,103.669 22.198,103.555 20.662,102.359C19.563,101.503 19.199,101.117 18.226,99.775C17.224,98.391 16.813,97.710 15.982,96.050C14.632,93.355 14.323,92.331 14.576,91.400C14.803,90.564 14.871,89.315 14.721,88.736C14.564,88.128 14.098,87.419 13.544,86.943C12.349,85.917 12.281,85.764 12.025,83.550C11.853,82.064 11.682,81.089 11.474,80.419C11.294,79.840 11.309,79.645 11.580,79.012C11.853,78.377 12.019,77.757 12.103,77.066C12.187,76.376 12.106,76.051 11.668,75.317C11.125,74.406 11.056,74.237 10.978,73.625C10.842,72.570 10.781,71.516 10.785,70.300C10.787,69.626 10.786,68.636 10.782,68.100C10.753,64.016 10.755,63.990 11.153,63.049C11.513,62.202 11.514,62.197 11.458,60.075C11.391,57.565 11.406,57.432 11.863,56.524C12.171,55.911 12.454,55.544 12.978,55.074C13.777,54.357 13.999,54.113 14.154,53.781C14.382,53.294 14.432,52.981 14.359,52.478C14.249,51.720 14.189,50.411 14.209,49.206L14.228,48.025 L14.535,47.150C14.703,46.669 15.158,45.352 15.546,44.225C15.933,43.098 16.288,42.101 16.334,42.011C16.387,41.907 16.602,41.716 16.921,41.490C17.770,40.889 18.222,40.520 18.364,40.315C18.460,40.178 18.566,39.860 18.720,39.247C19.003,38.128 19.079,37.943 19.532,37.261C19.984,36.580 20.699,35.838 21.300,35.424C21.978,34.957 22.482,34.416 22.765,33.850C23.062,33.257 23.126,32.947 23.223,31.625C23.309,30.454 23.336,30.315 23.581,29.847C24.263,28.542 28.242,24.105 30.341,22.309C31.167,21.603 31.624,21.390 33.478,20.849C35.488,20.263 36.027,19.865 36.882,18.335C37.691,16.888 38.065,16.500 39.450,15.675C39.629,15.568 40.358,15.102 41.070,14.638C43.421,13.107 44.976,12.266 45.964,11.993C46.156,11.939 46.920,11.627 47.661,11.298C50.125,10.204 50.219,10.183 52.650,10.178C54.743,10.174 54.700,10.184 55.220,9.614C56.089,8.659 56.464,8.325 56.932,8.085C57.488,7.800 57.788,7.727 59.725,7.405C62.528,6.939 65.734,6.510 67.275,6.395C68.661,6.292 69.561,6.447 70.800,7.000C72.288,7.665 72.594,7.747 73.739,7.785C75.315,7.839 76.172,7.686 77.300,7.149C78.169,6.736 78.422,6.676 79.275,6.678C79.917,6.680 80.082,6.701 81.272,6.942C81.985,7.086 82.980,7.271 83.483,7.353C86.407,7.827 87.448,8.169 88.691,9.061C89.455,9.609 90.292,9.992 91.725,10.448C92.220,10.606 92.240,10.608 93.700,10.653C95.797,10.719 96.089,10.768 97.618,11.307C100.180,12.210 100.924,12.659 101.717,13.775C102.062,14.262 102.863,15.105 103.091,15.221C103.183,15.268 103.532,15.363 103.866,15.432C104.637,15.591 105.985,16.034 106.582,16.324C107.010,16.533 107.080,16.590 107.633,17.182C109.903,19.615 110.497,20.196 110.949,20.424C111.074,20.487 111.501,20.667 111.900,20.825C114.519,21.859 117.285,23.972 119.015,26.263C119.898,27.432 120.008,27.678 120.177,28.850C120.318,29.835 120.366,29.983 120.719,30.516C121.043,31.005 121.388,31.650 121.781,32.500C122.134,33.264 122.560,34.036 122.867,34.466C123.103,34.798 123.464,35.119 124.425,35.853C125.564,36.723 126.482,37.791 127.728,39.699C128.637,41.088 129.909,43.675 130.348,45.025C130.596,45.787 130.638,46.147 130.532,46.625C130.490,46.818 130.420,47.133 130.377,47.325C130.253,47.880 130.224,48.901 130.319,49.350C130.476,50.088 131.028,50.894 131.780,51.480C132.637,52.149 132.778,52.510 133.048,54.708C133.227,56.170 133.392,57.093 133.598,57.786C133.682,58.067 133.750,58.356 133.750,58.428C133.750,58.500 133.638,58.824 133.501,59.148C133.182,59.901 133.001,60.628 132.965,61.302C132.930,61.963 132.994,62.204 133.379,62.850C134.040,63.957 134.082,64.116 134.228,66.062C134.293,66.924 134.306,67.513 134.283,68.675C134.266,69.500 134.272,70.765 134.296,71.487C134.321,72.210 134.321,73.102 134.298,73.475C134.255,74.171 134.177,74.462 133.687,75.750C133.588,76.010 133.584,76.098 133.604,77.400C133.657,80.816 133.660,80.777 133.261,81.575C132.860,82.380 132.516,82.809 131.800,83.400C131.163,83.926 130.892,84.310 130.744,84.899C130.651,85.268 130.644,85.363 130.693,85.626C130.802,86.219 130.858,87.452 130.839,88.854L130.820,90.275 L130.531,91.075C130.372,91.515 129.915,92.820 129.517,93.975C129.118,95.130 128.747,96.149 128.691,96.239C128.634,96.331 128.322,96.594 127.982,96.834C126.594,97.820 126.634,97.768 126.331,98.994C126.206,99.499 126.036,100.057 125.954,100.232C125.557,101.081 124.543,102.249 123.700,102.828C123.010,103.302 122.605,103.746 122.306,104.356C121.998,104.986 121.926,105.328 121.851,106.500C121.780,107.620 121.738,107.848 121.528,108.275C120.902,109.546 116.828,114.110 114.700,115.923C113.956,116.557 113.315,116.862 111.863,117.273C109.516,117.936 109.150,118.204 108.085,120.033C107.325,121.341 107.030,121.657 105.977,122.300C105.685,122.479 104.878,122.994 104.185,123.445C101.841,124.972 100.168,125.886 99.139,126.203C98.865,126.288 98.210,126.550 97.683,126.785C94.966,127.999 94.894,128.015 92.400,128.021C90.150,128.026 90.368,127.946 89.340,129.150C88.956,129.599 88.362,130.041 87.856,130.253C87.335,130.472 85.747,130.766 82.625,131.220C79.087,131.736 77.130,131.912 76.260,131.795ZM75.625,124.950C77.760,124.872 78.904,124.742 80.930,124.348C83.779,123.793 87.757,122.817 88.859,122.402C89.379,122.206 89.700,121.745 89.700,121.192C89.700,121.088 89.634,120.600 89.553,120.108C89.230,118.147 89.202,117.781 89.354,117.468C89.497,117.170 89.725,117.040 90.100,117.040C90.686,117.040 91.055,117.431 92.067,119.123C92.766,120.290 93.011,120.506 93.640,120.508C93.902,120.509 94.005,120.468 94.925,120.006C99.741,117.584 104.899,114.428 107.666,112.212C111.012,109.530 113.049,107.154 116.702,101.675C122.012,93.711 124.889,87.493 125.874,81.851C126.020,81.013 126.028,80.811 125.925,80.467C125.824,80.125 125.618,79.929 124.902,79.495C124.117,79.019 123.787,78.756 123.623,78.477C123.382,78.066 123.406,77.714 123.701,77.306C123.881,77.058 124.474,76.757 125.091,76.601C126.027,76.365 126.382,76.124 126.525,75.631C126.674,75.116 126.840,73.032 126.948,70.325C126.989,69.289 127.016,69.019 127.102,68.750C127.219,68.386 127.213,68.150 126.998,65.150C126.709,61.104 126.573,60.181 125.718,56.500C125.485,55.496 125.129,53.953 124.927,53.069C124.540,51.378 124.500,51.258 124.240,50.997C123.851,50.608 123.414,50.556 122.325,50.767C120.894,51.044 120.130,51.070 119.777,50.851C119.367,50.598 119.287,49.988 119.599,49.501C119.870,49.079 120.827,48.305 121.946,47.604C122.508,47.252 122.734,46.790 122.609,46.249C122.364,45.185 119.969,40.264 118.535,37.875C115.900,33.486 111.941,29.310 106.744,25.441C104.444,23.728 102.853,22.688 100.275,21.213C99.505,20.773 98.403,20.132 97.825,19.789C95.386,18.342 93.711,17.572 90.747,16.533C82.911,13.786 71.930,12.529 65.382,13.629C62.625,14.092 57.547,15.291 56.189,15.799C55.804,15.943 55.523,16.232 55.418,16.590C55.324,16.915 55.329,16.969 55.573,18.475C55.822,20.006 55.846,20.422 55.704,20.718C55.552,21.031 55.332,21.160 54.950,21.160C54.372,21.160 53.992,20.754 52.984,19.060C52.320,17.943 52.075,17.738 51.404,17.737C51.080,17.737 51.054,17.747 49.675,18.444C44.952,20.828 39.916,23.944 37.150,26.193C34.393,28.434 32.510,30.536 29.841,34.350C23.616,43.248 20.083,50.621 19.143,56.675C19.039,57.343 19.038,57.388 19.117,57.658C19.231,58.046 19.487,58.294 20.245,58.751C21.474,59.492 21.816,60.021 21.496,60.684C21.296,61.097 20.869,61.350 19.953,61.599C19.050,61.845 18.675,62.111 18.526,62.613C18.384,63.090 18.197,65.600 18.121,68.050C18.096,68.869 18.069,69.145 17.987,69.421C17.863,69.840 17.878,70.442 18.075,73.150C18.367,77.159 18.500,78.053 19.331,81.625C19.536,82.505 19.873,83.968 20.079,84.875C20.528,86.852 20.554,86.937 20.786,87.176C21.207,87.610 21.612,87.652 22.900,87.397C24.048,87.169 24.976,87.154 25.285,87.359C25.515,87.512 25.700,87.841 25.700,88.100C25.700,88.633 25.006,89.351 23.582,90.292C22.812,90.801 22.624,90.983 22.525,91.317C22.377,91.814 22.410,91.968 22.925,93.170C24.854,97.673 26.899,101.272 29.096,104.025C32.903,108.798 38.556,113.454 44.927,117.065C45.340,117.299 46.184,117.788 46.802,118.152C49.569,119.782 50.438,120.204 53.188,121.256C55.389,122.098 58.070,122.871 60.791,123.447C65.650,124.477 68.997,124.867 74.050,124.991C74.201,124.995 74.910,124.976 75.625,124.950Z" fill-rule="evenodd" transform="scale(2.0)" fill="#2f2624"/></g><g inkscape:groupmode="layer" inkscape:label="artwork"><path d="M 3.70461,184.19377 C 3.2349400000000004,183.99644 3.29366,183.26367 3.9030500000000004,181.71766 C 4.41047,180.43031 4.431970000000001,179.75871999999998 4.4264,165.36984999999999 C 4.4204,150.99194999999997 4.3987,150.31631 3.89723,149.21115999999998 C 2.84732,146.89736999999997 3.09131,146.72964 7.33503,146.84780999999998 L 10.10556,146.92490999999998 L 13.140170000000001,154.53168 C 14.8092,158.71541 16.24855,162.13845 16.338700000000003,162.13845 C 16.428900000000002,162.13845 17.870090000000005,158.71541000000002 19.54144,154.53168 L 22.580260000000003,146.92490999999998 L 25.77802,146.85090999999997 C 29.518890000000003,146.76430999999997 29.61577,146.83490999999998 28.701620000000002,148.98118999999997 C 28.117800000000003,150.35189999999997 28.112450000000003,150.48898999999997 28.11539,163.99057999999997 C 28.11839,176.54984999999996 28.15719,177.74452999999997 28.61431,179.25047999999995 C 28.88708,180.14909999999995 29.04597,181.05187999999995 28.967389999999998,181.25664999999995 C 28.864349999999998,181.52517999999995 27.86121,181.72093999999996 25.368489999999998,181.95898999999994 C 23.46767,182.14050999999995 21.777959999999997,182.20589999999996 21.61357,182.10429999999994 C 21.29044,181.90458999999993 21.36667,181.32188999999994 22.00919,179.08030999999994 C 22.345010000000002,177.90874999999994 22.42388,176.09965999999994 22.42388,169.56853999999993 C 22.42388,164.12377999999993 22.33678,161.59055999999993 22.1559,161.77146999999994 C 22.00852,161.91885999999994 20.88165,164.39591999999993 19.65175,167.27605999999994 C 18.42186,170.15620999999993 17.27771,172.67879999999994 17.10921,172.88183999999995 C 16.67929,173.39985999999996 15.70833,173.34116999999995 15.187520000000001,172.76567999999995 C 14.945960000000001,172.49874999999994 13.75406,169.99577999999994 12.53885,167.20349999999993 C 11.323640000000001,164.41122999999993 10.25268,162.04992999999993 10.15892,161.95617999999993 C 10.06522,161.86247999999992 9.98846,165.78354999999993 9.98846,170.66977999999995 C 9.98846,178.70019999999994 10.03746,179.71133999999995 10.49859,181.19288999999995 C 10.779160000000001,182.09436999999994 10.95137,182.98137999999994 10.88128,183.16402999999994 C 10.80178,183.37118999999993 9.68926,183.61815999999993 7.92376,183.82055999999994 C 6.36721,183.99899999999994 4.855549999999999,184.18723999999995 4.5645,184.23885999999993 C 4.27346,184.29045999999994 3.88651,184.27015999999992 3.7046099999999997,184.19375999999994 L 3.70461,184.19377" fill="#1a2746" fill-rule="evenodd" transform="translate(145.064,141.201) scale(2.7733) translate(-28.650,-165.550)"/><path d="M 37.41258,180.27062 C 37.33058,180.05684 37.496379999999995,179.20476000000002 37.78115,178.37712000000002 C 38.265969999999996,176.96797 38.29888,176.09294000000003 38.29888,164.61062 L 38.29888,152.34891000000002 L 36.359339999999996,152.34891000000002 C 34.82013,152.34891000000002 34.152629999999995,152.48417 33.125319999999995,153.00427000000002 C 32.39874999999999,153.37210000000002 31.730599999999995,153.55939 31.602369999999993,153.43115000000003 C 31.345889999999994,153.17468000000002 31.845779999999994,148.31835000000004 32.224419999999995,147.38797000000002 L 32.466699999999996,146.79266 L 41.320299999999996,146.79266 C 46.96883,146.79266 50.23340999999999,146.88896000000003 50.3383,147.05867 C 50.4287,147.20497 50.687189999999994,148.58468000000002 50.91267,150.12470000000002 C 51.41057,153.5252 51.30835,153.71936000000002 49.44269,152.91678000000002 C 48.47943,152.50239000000002 47.5817,152.34891000000002 46.121179999999995,152.34891000000002 L 44.11971,152.34891000000002 L 44.11971,164.3864 C 44.11971,175.94558 44.141909999999996,176.48796000000002 44.677769999999995,178.03646 C 45.02448999999999,179.03832 45.142019999999995,179.74285 44.988119999999995,179.89675 C 44.85187,180.033 43.49941999999999,180.2563 41.982659999999996,180.39299 C 38.155919999999995,180.73784 37.58602,180.72258 37.41258,180.27062" fill="#1a2746" fill-rule="evenodd" transform="translate(145.064,141.201) scale(2.7733) translate(-25.950,-165.550)"/></g></svg>